# xmcd
#
# Track frame offsets: 
#        150
#        16067
#        35547
#        51715
#        71637
#        88647
#        105937
#        125320
#        142287
#        155920
#        172537
#        191727
#        222325
#        239705
#
# Disc length: 3405 seconds
#
# Revision: 0
# Processed by: cddbd v1.4PL0 Copyright (c) Steve Scherf et al.
# Submitted via: ExactAudioCopy v0.90b4
#
DISCID=cb0d4b0e
DTITLE=Vinny - Quando o Tempo Pára
DYEAR=2000
DGENRE=Pop
TTITLE0=Fuck The Fashion
TTITLE1=Quero Muito Mais
TTITLE2=Enquanto o Dia Não Chegar
TTITLE3=Como Você Faz
TTITLE4=Palavra Certa
TTITLE5=174
TTITLE6=Quando o Tempo Pára
TTITLE7=Nem Tudo Pode Ser
TTITLE8=Você Quer Love (eu quero sex)
TTITLE9=Tudo Que Eu Não Quero Ser
TTITLE10=Do Que Jamais Aconteceu
TTITLE11=Nem Mais Uma Vez
TTITLE12=Minha Solução
TTITLE13=Seja Como For (bonus track)
EXTD=
EXTT0=
EXTT1=
EXTT2=
EXTT3=
EXTT4=
EXTT5=
EXTT6=
EXTT7=
EXTT8=
EXTT9=
EXTT10=
EXTT11=
EXTT12=
EXTT13=
PLAYORDER=
